<svg width="125" height="42" viewBox="0 0 125 42" fill="none" xmlns="http://www.w3.org/2000/svg">
<path d="M11.8238 11.4932C5.85479 11.4932 1 16.4143 1 22.465C1 28.5157 5.85472 33.4368 11.8238 33.4368C14.5416 33.4368 17.025 32.4113 18.9266 30.7294L28.8407 40.779C29.1166 41.067 29.6238 41.0762 29.9021 40.7909C30.1804 40.5056 30.1776 39.9796 29.8904 39.7031L19.9883 29.6656C21.6444 27.7383 22.6475 25.2177 22.6475 22.4657C22.6475 16.415 17.7928 11.4938 11.8237 11.4938L11.8238 11.4932ZM11.8238 13.0064C16.986 13.0064 21.1547 17.2321 21.1547 22.4649C21.1547 27.6976 16.986 31.9233 11.8238 31.9233C6.66164 31.9233 2.49294 27.6976 2.49294 22.4649C2.49294 17.2321 6.66164 13.0064 11.8238 13.0064Z" fill="#FFFBF5" stroke="#FFFBF5" stroke-width="0.867836"/>
<path d="M102.9 30.6569C103.327 30.6569 103.672 31.007 103.672 31.4395C103.672 31.8722 103.327 32.2221 102.9 32.2221H85.7185C85.3463 32.2221 85.0351 31.9546 84.9628 31.5994L83.9444 27.7477C83.935 27.7205 83.9278 27.6913 83.9216 27.6631L80.8084 15.8848L79.6136 11.3655L74.1955 9.57028C73.7905 9.43641 73.5697 8.99567 73.7008 8.58606C73.8329 8.17545 74.2677 7.95071 74.673 8.08459L80.4651 10.0042C80.7156 10.0773 80.9239 10.279 80.996 10.5538L81.6309 12.9549H105.328C105.755 12.9549 106.1 13.305 106.1 13.7375C106.1 13.8232 106.086 13.9056 106.062 13.9831L102.434 27.7064C102.342 28.0565 102.03 28.2873 101.689 28.2864V28.2873H85.6838L86.3106 30.6584H102.901L102.9 30.6569ZM99.7819 34.4269C100.676 34.4269 101.486 34.7948 102.072 35.3883C102.659 35.9828 103.021 36.8031 103.021 37.71C103.021 38.617 102.658 39.4384 102.072 40.0317C101.486 40.6263 100.677 40.9931 99.7819 40.9931C98.8871 40.9931 98.078 40.6253 97.4915 40.0317C96.905 39.4372 96.5431 38.617 96.5431 37.71C96.5431 36.8041 96.9059 35.9828 97.4915 35.3883C98.078 34.7938 98.8871 34.4269 99.7819 34.4269ZM100.981 36.496C100.673 36.1845 100.25 35.9933 99.7819 35.9933C99.3138 35.9933 98.8903 36.1855 98.583 36.496C98.2769 36.8062 98.0871 37.2358 98.0871 37.7103C98.0871 38.1847 98.2767 38.6141 98.583 38.9256C98.8891 39.237 99.3138 39.4282 99.7819 39.4282C100.25 39.4282 100.673 39.2361 100.981 38.9256C101.287 38.6153 101.477 38.1857 101.477 37.7103C101.477 37.2358 101.287 36.8065 100.981 36.496ZM89.0539 34.4269C89.9486 34.4269 90.759 34.7948 91.3443 35.3883C91.9308 35.9828 92.2927 36.8031 92.2927 37.71C92.2927 38.617 91.9298 39.4384 91.3443 40.0317C90.7578 40.6263 89.9486 40.9931 89.0539 40.9931C88.1601 40.9931 87.35 40.6253 86.7635 40.0317C86.177 39.4372 85.8151 38.617 85.8151 37.71C85.8151 36.8041 86.1779 35.9828 86.7635 35.3883C87.35 34.7938 88.1592 34.4269 89.0539 34.4269ZM90.2528 36.496C89.9467 36.1845 89.5229 35.9933 89.0539 35.9933C88.5858 35.9933 88.1623 36.1855 87.855 36.496C87.5489 36.8062 87.3591 37.2358 87.3591 37.7103C87.3591 38.1847 87.5487 38.6141 87.855 38.9256C88.1623 39.237 88.5858 39.4282 89.0539 39.4282C89.522 39.4282 89.9455 39.2361 90.2528 38.9256C90.5588 38.6153 90.7487 38.1857 90.7487 37.7103C90.7487 37.2358 90.5591 36.8065 90.2528 36.496ZM82.0442 14.5191L85.2696 26.7198H101.097L104.321 14.5191H82.044H82.0442ZM80.8081 15.8847L80.2938 13.9381C80.1835 13.5212 80.4278 13.0929 80.84 12.9808C80.9071 12.9631 80.974 12.9546 81.039 12.9546V12.9536L80.8081 15.8847Z" fill="#FFFBF5" stroke="#FFFBF5" stroke-width="0.383107"/>
<circle cx="113.888" cy="11.1101" r="11.1101" fill="#FFFBF5"/>
<path d="M111.171 14.405H113.313V8.72758L111.171 10.2541V8.2991L113.434 6.69227H115.322V14.405H117.062V16.0654H111.171V14.405Z" fill="#664535"/>
</svg>
